<mxfile host="65bd71144e">
    <diagram id="k57kmVBUNXLY-qw0eQo-" name="page 1">
        <mxGraphModel dx="1109" dy="460" grid="1" gridSize="10" guides="1" tooltips="1" connect="1" arrows="1" fold="1" page="1" pageScale="1" pageWidth="827" pageHeight="1169" math="0" shadow="0">
            <root>
                <mxCell id="0"/>
                <mxCell id="1" parent="0"/>
                <mxCell id="2" value="Homepage (Landing Page)&lt;div&gt;&lt;br&gt;&lt;/div&gt;&lt;div&gt;A professional photo or a creative avatar&lt;/div&gt;" style="html=1;dashed=0;whiteSpace=wrap;" vertex="1" parent="1">
                    <mxGeometry x="410" y="70" width="470" height="100" as="geometry"/>
                </mxCell>
                <mxCell id="3" value="A sleek and modern hero section with&amp;nbsp; Software Developer&quot;), and a short bio." style="html=1;dashed=0;whiteSpace=wrap;" vertex="1" parent="1">
                    <mxGeometry x="110" y="250" width="220" height="60" as="geometry"/>
                </mxCell>
                <mxCell id="4" value="Social Media Icons" style="html=1;dashed=0;whiteSpace=wrap;" vertex="1" parent="1">
                    <mxGeometry x="510" y="260" width="222.5" height="60" as="geometry"/>
                </mxCell>
                <mxCell id="5" value="Menu links (Blog, Project, About, Honors/ Awards)" style="whiteSpace=wrap;html=1;dashed=0;" vertex="1" parent="1">
                    <mxGeometry x="510" y="410" width="215" height="60" as="geometry"/>
                </mxCell>
                <mxCell id="6" style="edgeStyle=none;html=1;exitX=1;exitY=0.5;exitDx=0;exitDy=0;entryX=0;entryY=0.5;entryDx=0;entryDy=0;" edge="1" parent="1" source="7" target="9">
                    <mxGeometry relative="1" as="geometry"/>
                </mxCell>
                <mxCell id="7" value="Facebook" style="whiteSpace=wrap;html=1;align=center;" vertex="1" parent="1">
                    <mxGeometry x="825" y="370" width="100" height="40" as="geometry"/>
                </mxCell>
                <mxCell id="8" value="" style="edgeStyle=none;html=1;" edge="1" parent="1" source="9" target="11">
                    <mxGeometry relative="1" as="geometry"/>
                </mxCell>
                <mxCell id="9" value="Tweet" style="whiteSpace=wrap;html=1;align=center;" vertex="1" parent="1">
                    <mxGeometry x="960" y="370" width="100" height="40" as="geometry"/>
                </mxCell>
                <mxCell id="10" value="" style="edgeStyle=none;html=1;" edge="1" parent="1" source="11" target="13">
                    <mxGeometry relative="1" as="geometry"/>
                </mxCell>
                <mxCell id="11" value="Instragram" style="whiteSpace=wrap;html=1;align=center;" vertex="1" parent="1">
                    <mxGeometry x="1100" y="370" width="100" height="40" as="geometry"/>
                </mxCell>
                <mxCell id="12" value="" style="edgeStyle=none;html=1;" edge="1" parent="1" source="13" target="15">
                    <mxGeometry relative="1" as="geometry"/>
                </mxCell>
                <mxCell id="13" value="Linkendin" style="whiteSpace=wrap;html=1;align=center;" vertex="1" parent="1">
                    <mxGeometry x="1230" y="370" width="100" height="40" as="geometry"/>
                </mxCell>
                <mxCell id="14" value="" style="edgeStyle=none;html=1;" edge="1" parent="1" source="15" target="16">
                    <mxGeometry relative="1" as="geometry"/>
                </mxCell>
                <mxCell id="15" value="Github" style="whiteSpace=wrap;html=1;align=center;" vertex="1" parent="1">
                    <mxGeometry x="1360" y="370" width="100" height="40" as="geometry"/>
                </mxCell>
                <mxCell id="16" value="Email" style="whiteSpace=wrap;html=1;align=center;" vertex="1" parent="1">
                    <mxGeometry x="1490" y="370" width="100" height="40" as="geometry"/>
                </mxCell>
                <mxCell id="17" value="&lt;b&gt;Redirect Links&lt;/b&gt;" style="text;html=1;align=center;verticalAlign=middle;resizable=0;points=[];autosize=1;strokeColor=none;fillColor=none;" vertex="1" parent="1">
                    <mxGeometry x="1200" y="310" width="110" height="30" as="geometry"/>
                </mxCell>
                <mxCell id="18" value="" style="edgeStyle=none;html=1;" edge="1" parent="1" source="19" target="21">
                    <mxGeometry relative="1" as="geometry"/>
                </mxCell>
                <mxCell id="19" value="&lt;span style=&quot;color: rgb(0, 0, 0);&quot;&gt;Blog&lt;/span&gt;" style="whiteSpace=wrap;html=1;dashed=0;" vertex="1" parent="1">
                    <mxGeometry x="260" y="562" width="160" height="45" as="geometry"/>
                </mxCell>
                <mxCell id="20" value="" style="edgeStyle=none;html=1;" edge="1" parent="1" source="21" target="23">
                    <mxGeometry relative="1" as="geometry"/>
                </mxCell>
                <mxCell id="21" value="&lt;span style=&quot;color: rgb(0, 0, 0);&quot;&gt;Project&lt;/span&gt;" style="whiteSpace=wrap;html=1;dashed=0;" vertex="1" parent="1">
                    <mxGeometry x="260" y="650" width="160" height="45" as="geometry"/>
                </mxCell>
                <mxCell id="22" value="" style="edgeStyle=none;html=1;" edge="1" parent="1" source="23" target="24">
                    <mxGeometry relative="1" as="geometry"/>
                </mxCell>
                <mxCell id="23" value="&lt;span style=&quot;color: rgb(0, 0, 0);&quot;&gt;About&lt;/span&gt;" style="whiteSpace=wrap;html=1;dashed=0;" vertex="1" parent="1">
                    <mxGeometry x="480" y="650" width="160" height="45" as="geometry"/>
                </mxCell>
                <mxCell id="24" value="&lt;span style=&quot;color: rgb(0, 0, 0);&quot;&gt;Honors/Awards&lt;/span&gt;" style="whiteSpace=wrap;html=1;dashed=0;" vertex="1" parent="1">
                    <mxGeometry x="680" y="650" width="160" height="45" as="geometry"/>
                </mxCell>
                <mxCell id="25" value="" style="edgeStyle=entityRelationEdgeStyle;fontSize=12;html=1;endArrow=ERzeroToMany;endFill=1;startArrow=ERzeroToMany;entryX=1;entryY=0.75;entryDx=0;entryDy=0;exitX=0;exitY=0.5;exitDx=0;exitDy=0;" edge="1" parent="1" source="5" target="3">
                    <mxGeometry width="100" height="100" relative="1" as="geometry">
                        <mxPoint x="500" y="430" as="sourcePoint"/>
                        <mxPoint x="290" y="340" as="targetPoint"/>
                        <Array as="points">
                            <mxPoint x="360" y="470"/>
                            <mxPoint x="350" y="510"/>
                            <mxPoint x="500" y="260"/>
                            <mxPoint x="380" y="530"/>
                        </Array>
                    </mxGeometry>
                </mxCell>
                <mxCell id="26" value="" style="edgeStyle=entityRelationEdgeStyle;fontSize=12;html=1;endArrow=ERzeroToMany;startArrow=ERmandOne;exitX=0;exitY=0.5;exitDx=0;exitDy=0;" edge="1" parent="1" source="2" target="3">
                    <mxGeometry width="100" height="100" relative="1" as="geometry">
                        <mxPoint x="260" y="260" as="sourcePoint"/>
                        <mxPoint x="360" y="160" as="targetPoint"/>
                    </mxGeometry>
                </mxCell>
                <mxCell id="27" value="" style="edgeStyle=entityRelationEdgeStyle;fontSize=12;html=1;endArrow=ERzeroToOne;endFill=1;" edge="1" parent="1" target="19">
                    <mxGeometry width="100" height="100" relative="1" as="geometry">
                        <mxPoint x="730" y="440" as="sourcePoint"/>
                        <mxPoint x="780" y="320" as="targetPoint"/>
                    </mxGeometry>
                </mxCell>
                <mxCell id="28" value="&lt;b&gt;Open External&amp;nbsp;&lt;/b&gt;" style="text;html=1;align=center;verticalAlign=middle;resizable=0;points=[];autosize=1;strokeColor=none;fillColor=none;" vertex="1" parent="1">
                    <mxGeometry x="555" y="600" width="110" height="30" as="geometry"/>
                </mxCell>
                <mxCell id="29" value="" style="edgeStyle=entityRelationEdgeStyle;fontSize=12;html=1;endArrow=ERzeroToMany;startArrow=ERzeroToOne;entryX=1;entryY=0.5;entryDx=0;entryDy=0;exitX=1;exitY=0.75;exitDx=0;exitDy=0;" edge="1" parent="1" source="4">
                    <mxGeometry width="100" height="100" relative="1" as="geometry">
                        <mxPoint x="582" y="510" as="sourcePoint"/>
                        <mxPoint x="827" y="390" as="targetPoint"/>
                    </mxGeometry>
                </mxCell>
                <mxCell id="30" value="" style="edgeStyle=entityRelationEdgeStyle;fontSize=12;html=1;endArrow=ERzeroToMany;startArrow=ERmandOne;" edge="1" parent="1" target="4">
                    <mxGeometry width="100" height="100" relative="1" as="geometry">
                        <mxPoint x="880" y="120" as="sourcePoint"/>
                        <mxPoint x="350" y="270" as="targetPoint"/>
                    </mxGeometry>
                </mxCell>
            </root>
        </mxGraphModel>
    </diagram>
    <diagram name="Page2" id="LMcXzMew2jumVSTrznwG">
        <mxGraphModel dx="1109" dy="460" grid="1" gridSize="10" guides="1" tooltips="1" connect="1" arrows="1" fold="1" page="1" pageScale="1" pageWidth="1169" pageHeight="1654" background="none" math="0" shadow="1">
            <root>
                <mxCell id="0"/>
                <mxCell id="1" parent="0"/>
                <mxCell id="MoqnzFtCOyWyy0Nb3kaN-4" value="" style="edgeStyle=none;html=1;movable=0;resizable=0;rotatable=0;deletable=0;editable=0;locked=1;connectable=0;" parent="1" source="MoqnzFtCOyWyy0Nb3kaN-2" target="MoqnzFtCOyWyy0Nb3kaN-3" edge="1">
                    <mxGeometry relative="1" as="geometry"/>
                </mxCell>
                <mxCell id="MoqnzFtCOyWyy0Nb3kaN-2" value="&lt;span style=&quot;color: rgb(0, 0, 0);&quot;&gt;Softaware Developer Portfolio&lt;/span&gt;" style="shape=ellipse;html=1;dashed=0;whiteSpace=wrap;perimeter=ellipsePerimeter;shadow=0;strokeColor=light-dark(#0b5c00, #ededed);movable=0;resizable=0;rotatable=0;deletable=0;editable=0;locked=1;connectable=0;" parent="1" vertex="1">
                    <mxGeometry x="820" y="20" width="160" height="60" as="geometry"/>
                </mxCell>
                <mxCell id="MoqnzFtCOyWyy0Nb3kaN-10" style="edgeStyle=none;html=1;movable=0;resizable=0;rotatable=0;deletable=0;editable=0;locked=1;connectable=0;" parent="1" source="MoqnzFtCOyWyy0Nb3kaN-3" target="MoqnzFtCOyWyy0Nb3kaN-8" edge="1">
                    <mxGeometry relative="1" as="geometry">
                        <Array as="points">
                            <mxPoint x="700" y="190"/>
                        </Array>
                    </mxGeometry>
                </mxCell>
                <mxCell id="MoqnzFtCOyWyy0Nb3kaN-3" value="Development Enviroment&amp;nbsp;" style="whiteSpace=wrap;html=1;dashed=0;movable=0;resizable=0;rotatable=0;deletable=0;editable=0;locked=1;connectable=0;" parent="1" vertex="1">
                    <mxGeometry x="840" y="160" width="120" height="60" as="geometry"/>
                </mxCell>
                <mxCell id="MoqnzFtCOyWyy0Nb3kaN-22" style="edgeStyle=none;html=1;exitX=0.5;exitY=1;exitDx=0;exitDy=0;movable=0;resizable=0;rotatable=0;deletable=0;editable=0;locked=1;connectable=0;" parent="1" source="MoqnzFtCOyWyy0Nb3kaN-8" target="MoqnzFtCOyWyy0Nb3kaN-23" edge="1">
                    <mxGeometry relative="1" as="geometry">
                        <mxPoint x="699.6842105263158" y="530" as="targetPoint"/>
                    </mxGeometry>
                </mxCell>
                <mxCell id="MoqnzFtCOyWyy0Nb3kaN-8" value="&lt;span style=&quot;color: rgb(0, 0, 0);&quot;&gt;Do you have design&amp;nbsp;&lt;/span&gt;&lt;div&gt;&lt;span style=&quot;color: rgb(0, 0, 0);&quot;&gt;in mind?&lt;/span&gt;&lt;/div&gt;" style="shape=rhombus;perimeter=rhombusPerimeter;whiteSpace=wrap;html=1;align=center;movable=0;resizable=0;rotatable=0;deletable=0;editable=0;locked=1;connectable=0;" parent="1" vertex="1">
                    <mxGeometry x="610" y="320" width="180" height="90" as="geometry"/>
                </mxCell>
                <mxCell id="MoqnzFtCOyWyy0Nb3kaN-12" value="" style="endArrow=classic;html=1;entryX=0;entryY=0.5;entryDx=0;entryDy=0;movable=0;resizable=0;rotatable=0;deletable=0;editable=0;locked=1;connectable=0;" parent="1" source="MoqnzFtCOyWyy0Nb3kaN-8" target="MoqnzFtCOyWyy0Nb3kaN-20" edge="1">
                    <mxGeometry width="50" height="50" relative="1" as="geometry">
                        <mxPoint x="1090" y="510" as="sourcePoint"/>
                        <mxPoint x="910" y="365" as="targetPoint"/>
                    </mxGeometry>
                </mxCell>
                <mxCell id="MoqnzFtCOyWyy0Nb3kaN-13" value="" style="endArrow=classic;html=1;exitX=1;exitY=0.5;exitDx=0;exitDy=0;entryX=0.5;entryY=0;entryDx=0;entryDy=0;movable=0;resizable=0;rotatable=0;deletable=0;editable=0;locked=1;connectable=0;" parent="1" source="MoqnzFtCOyWyy0Nb3kaN-3" target="MoqnzFtCOyWyy0Nb3kaN-20" edge="1">
                    <mxGeometry width="50" height="50" relative="1" as="geometry">
                        <mxPoint x="970" y="200" as="sourcePoint"/>
                        <mxPoint x="1040" y="280" as="targetPoint"/>
                        <Array as="points">
                            <mxPoint x="1040" y="190"/>
                        </Array>
                    </mxGeometry>
                </mxCell>
                <mxCell id="MoqnzFtCOyWyy0Nb3kaN-14" value="NO" style="text;html=1;align=center;verticalAlign=middle;resizable=0;points=[];autosize=1;strokeColor=none;fillColor=none;movable=0;rotatable=0;deletable=0;editable=0;locked=1;connectable=0;" parent="1" vertex="1">
                    <mxGeometry x="790" y="335" width="40" height="30" as="geometry"/>
                </mxCell>
                <mxCell id="MoqnzFtCOyWyy0Nb3kaN-15" value="YES" style="text;html=1;align=center;verticalAlign=middle;resizable=0;points=[];autosize=1;strokeColor=none;fillColor=none;movable=0;rotatable=0;deletable=0;editable=0;locked=1;connectable=0;" parent="1" vertex="1">
                    <mxGeometry x="710" y="410" width="50" height="30" as="geometry"/>
                </mxCell>
                <mxCell id="ji__ln6MW3JqXd6LYLSE-1" style="edgeStyle=none;html=1;exitX=1;exitY=0.5;exitDx=0;exitDy=0;entryX=0.5;entryY=0;entryDx=0;entryDy=0;movable=0;resizable=0;rotatable=0;deletable=0;editable=0;locked=1;connectable=0;" parent="1" source="MoqnzFtCOyWyy0Nb3kaN-17" target="ji__ln6MW3JqXd6LYLSE-2" edge="1">
                    <mxGeometry relative="1" as="geometry">
                        <mxPoint x="1490" y="600" as="targetPoint"/>
                        <Array as="points">
                            <mxPoint x="1470" y="365"/>
                        </Array>
                    </mxGeometry>
                </mxCell>
                <mxCell id="MoqnzFtCOyWyy0Nb3kaN-17" value="Start building your Portfolio" style="html=1;dashed=0;whiteSpace=wrap;movable=0;resizable=0;rotatable=0;deletable=0;editable=0;locked=1;connectable=0;" parent="1" vertex="1">
                    <mxGeometry x="1280" y="335" width="140" height="60" as="geometry"/>
                </mxCell>
                <mxCell id="MoqnzFtCOyWyy0Nb3kaN-19" value="Yes" style="text;html=1;align=center;verticalAlign=middle;resizable=0;points=[];autosize=1;strokeColor=none;fillColor=none;movable=0;rotatable=0;deletable=0;editable=0;locked=1;connectable=0;" parent="1" vertex="1">
                    <mxGeometry x="1220" y="330" width="40" height="30" as="geometry"/>
                </mxCell>
                <mxCell id="MoqnzFtCOyWyy0Nb3kaN-20" value="&lt;span style=&quot;color: rgb(0, 0, 0);&quot;&gt;Do you have&amp;nbsp;&lt;/span&gt;&lt;div&gt;&lt;span style=&quot;color: rgb(0, 0, 0);&quot;&gt;necessary skills?&lt;/span&gt;&lt;/div&gt;" style="shape=rhombus;perimeter=rhombusPerimeter;whiteSpace=wrap;html=1;align=center;movable=0;resizable=0;rotatable=0;deletable=0;editable=0;locked=1;connectable=0;" parent="1" vertex="1">
                    <mxGeometry x="950" y="315" width="180" height="100" as="geometry"/>
                </mxCell>
                <mxCell id="MoqnzFtCOyWyy0Nb3kaN-21" value="" style="endArrow=classic;html=1;exitX=1;exitY=0.5;exitDx=0;exitDy=0;movable=0;resizable=0;rotatable=0;deletable=0;editable=0;locked=1;connectable=0;" parent="1" source="MoqnzFtCOyWyy0Nb3kaN-20" target="MoqnzFtCOyWyy0Nb3kaN-17" edge="1">
                    <mxGeometry width="50" height="50" relative="1" as="geometry">
                        <mxPoint x="1130" y="500" as="sourcePoint"/>
                        <mxPoint x="1280" y="363" as="targetPoint"/>
                    </mxGeometry>
                </mxCell>
                <mxCell id="MoqnzFtCOyWyy0Nb3kaN-28" style="edgeStyle=none;html=1;movable=0;resizable=0;rotatable=0;deletable=0;editable=0;locked=1;connectable=0;" parent="1" source="MoqnzFtCOyWyy0Nb3kaN-23" target="MoqnzFtCOyWyy0Nb3kaN-27" edge="1">
                    <mxGeometry relative="1" as="geometry"/>
                </mxCell>
                <mxCell id="MoqnzFtCOyWyy0Nb3kaN-23" value="Choose a design template" style="html=1;dashed=0;whiteSpace=wrap;movable=0;resizable=0;rotatable=0;deletable=0;editable=0;locked=1;connectable=0;" parent="1" vertex="1">
                    <mxGeometry x="630" y="540" width="140" height="60" as="geometry"/>
                </mxCell>
                <mxCell id="MoqnzFtCOyWyy0Nb3kaN-25" value="" style="endArrow=classic;html=1;exitX=0.5;exitY=1;exitDx=0;exitDy=0;entryX=1;entryY=0.5;entryDx=0;entryDy=0;movable=0;resizable=0;rotatable=0;deletable=0;editable=0;locked=1;connectable=0;" parent="1" source="MoqnzFtCOyWyy0Nb3kaN-20" target="MoqnzFtCOyWyy0Nb3kaN-23" edge="1">
                    <mxGeometry width="50" height="50" relative="1" as="geometry">
                        <mxPoint x="1050" y="500" as="sourcePoint"/>
                        <mxPoint x="1100" y="450" as="targetPoint"/>
                        <Array as="points">
                            <mxPoint x="1040" y="570"/>
                        </Array>
                    </mxGeometry>
                </mxCell>
                <mxCell id="MoqnzFtCOyWyy0Nb3kaN-26" value="NO" style="text;html=1;align=center;verticalAlign=middle;resizable=0;points=[];autosize=1;strokeColor=none;fillColor=none;movable=0;rotatable=0;deletable=0;editable=0;locked=1;connectable=0;" parent="1" vertex="1">
                    <mxGeometry x="1050" y="415" width="40" height="30" as="geometry"/>
                </mxCell>
                <mxCell id="35BAJMezU53KQDEMfEBV-13" style="edgeStyle=none;html=1;exitX=0.5;exitY=1;exitDx=0;exitDy=0;movable=0;resizable=0;rotatable=0;deletable=0;editable=0;locked=1;connectable=0;" parent="1" source="MoqnzFtCOyWyy0Nb3kaN-27" target="35BAJMezU53KQDEMfEBV-14" edge="1">
                    <mxGeometry relative="1" as="geometry">
                        <mxPoint x="699.5" y="790" as="targetPoint"/>
                    </mxGeometry>
                </mxCell>
                <mxCell id="MoqnzFtCOyWyy0Nb3kaN-27" value="Customize design template" style="html=1;dashed=0;whiteSpace=wrap;movable=0;resizable=0;rotatable=0;deletable=0;editable=0;locked=1;connectable=0;" parent="1" vertex="1">
                    <mxGeometry x="630" y="660" width="140" height="60" as="geometry"/>
                </mxCell>
                <mxCell id="MoqnzFtCOyWyy0Nb3kaN-30" style="edgeStyle=none;html=1;entryX=0.986;entryY=0.874;entryDx=0;entryDy=0;entryPerimeter=0;movable=0;resizable=0;rotatable=0;deletable=0;editable=0;locked=1;connectable=0;" parent="1" source="MoqnzFtCOyWyy0Nb3kaN-17" target="MoqnzFtCOyWyy0Nb3kaN-23" edge="1">
                    <mxGeometry relative="1" as="geometry">
                        <mxPoint x="790" y="590" as="targetPoint"/>
                        <Array as="points">
                            <mxPoint x="1350" y="590"/>
                        </Array>
                    </mxGeometry>
                </mxCell>
                <mxCell id="MoqnzFtCOyWyy0Nb3kaN-31" value="NO" style="text;html=1;align=center;verticalAlign=middle;resizable=0;points=[];autosize=1;strokeColor=none;fillColor=none;movable=0;rotatable=0;deletable=0;editable=0;locked=1;connectable=0;" parent="1" vertex="1">
                    <mxGeometry x="1050" y="600" width="40" height="30" as="geometry"/>
                </mxCell>
                <mxCell id="d_-tCflrWgw_LAey9VcH-4" style="edgeStyle=none;html=1;entryX=0.5;entryY=0;entryDx=0;entryDy=0;movable=0;resizable=0;rotatable=0;deletable=0;editable=0;locked=1;connectable=0;" parent="1" source="ji__ln6MW3JqXd6LYLSE-2" target="-oHwt3OJgQPXoaU6FkW4-4" edge="1">
                    <mxGeometry relative="1" as="geometry">
                        <Array as="points">
                            <mxPoint x="1230" y="690"/>
                        </Array>
                    </mxGeometry>
                </mxCell>
                <mxCell id="ji__ln6MW3JqXd6LYLSE-2" value="&lt;span style=&quot;color: rgb(0, 0, 0);&quot;&gt;Homepage (Landing Page)&lt;/span&gt;&lt;div style=&quot;scrollbar-color: light-dark(#e2e2e2, #4b4b4b)&lt;br/&gt;&#x9;&#x9;&#x9;&#x9;&#x9;light-dark(#fbfbfb, var(--dark-panel-color));&quot;&gt;&lt;br style=&quot;scrollbar-color: light-dark(#e2e2e2, #4b4b4b)&lt;br/&gt;&#x9;&#x9;&#x9;&#x9;&#x9;light-dark(#fbfbfb, var(--dark-panel-color));&quot;&gt;&lt;/div&gt;&lt;div style=&quot;scrollbar-color: light-dark(#e2e2e2, #4b4b4b)&lt;br/&gt;&#x9;&#x9;&#x9;&#x9;&#x9;light-dark(#fbfbfb, var(--dark-panel-color));&quot;&gt;A professional photo or a creative avatar&lt;/div&gt;" style="html=1;dashed=0;whiteSpace=wrap;movable=0;resizable=0;rotatable=0;deletable=0;editable=0;locked=1;connectable=0;" parent="1" vertex="1">
                    <mxGeometry x="1350" y="660" width="240" height="60" as="geometry"/>
                </mxCell>
                <mxCell id="3qlIaEsYtgbg3fq5MESl-1" value="Yes" style="text;html=1;align=center;verticalAlign=middle;resizable=0;points=[];autosize=1;strokeColor=none;fillColor=none;movable=0;rotatable=0;deletable=0;editable=0;locked=1;connectable=0;" parent="1" vertex="1">
                    <mxGeometry x="1480" y="520" width="40" height="30" as="geometry"/>
                </mxCell>
                <mxCell id="-oHwt3OJgQPXoaU6FkW4-1" value="&lt;span style=&quot;color: rgb(0, 0, 0);&quot;&gt;Social Media Icons&lt;/span&gt;" style="whiteSpace=wrap;html=1;align=center;movable=0;resizable=0;rotatable=0;deletable=0;editable=0;locked=1;connectable=0;" parent="1" vertex="1">
                    <mxGeometry x="1380" y="785" width="120" height="60" as="geometry"/>
                </mxCell>
                <mxCell id="-oHwt3OJgQPXoaU6FkW4-5" style="edgeStyle=none;html=1;entryX=0;entryY=0.5;entryDx=0;entryDy=0;movable=0;resizable=0;rotatable=0;deletable=0;editable=0;locked=1;connectable=0;" parent="1" source="-oHwt3OJgQPXoaU6FkW4-4" target="-oHwt3OJgQPXoaU6FkW4-1" edge="1">
                    <mxGeometry relative="1" as="geometry"/>
                </mxCell>
                <mxCell id="-oHwt3OJgQPXoaU6FkW4-4" value="&lt;span style=&quot;color: rgb(0, 0, 0);&quot;&gt;A sleek and modern hero section with&amp;nbsp; Software Developer&lt;/span&gt;&lt;div&gt;&lt;span style=&quot;color: rgb(0, 0, 0);&quot;&gt;&amp;nbsp;and a short bio.&lt;/span&gt;&lt;/div&gt;" style="whiteSpace=wrap;html=1;align=center;movable=0;resizable=0;rotatable=0;deletable=0;editable=0;locked=1;connectable=0;" parent="1" vertex="1">
                    <mxGeometry x="1137.5" y="785" width="180" height="55" as="geometry"/>
                </mxCell>
                <mxCell id="mdgRkLLBLc6NfVk7s9g0-8" style="edgeStyle=none;html=1;exitX=1;exitY=0.5;exitDx=0;exitDy=0;entryX=0;entryY=0.5;entryDx=0;entryDy=0;movable=0;resizable=0;rotatable=0;deletable=0;editable=0;locked=1;connectable=0;" parent="1" source="mdgRkLLBLc6NfVk7s9g0-1" target="mdgRkLLBLc6NfVk7s9g0-2" edge="1">
                    <mxGeometry relative="1" as="geometry"/>
                </mxCell>
                <mxCell id="mdgRkLLBLc6NfVk7s9g0-1" value="Facebook" style="whiteSpace=wrap;html=1;align=center;movable=0;resizable=0;rotatable=0;deletable=0;editable=0;locked=1;connectable=0;" parent="1" vertex="1">
                    <mxGeometry x="1392" y="965" width="100" height="40" as="geometry"/>
                </mxCell>
                <mxCell id="mdgRkLLBLc6NfVk7s9g0-9" style="edgeStyle=none;html=1;entryX=0;entryY=0.5;entryDx=0;entryDy=0;movable=0;resizable=0;rotatable=0;deletable=0;editable=0;locked=1;connectable=0;" parent="1" source="mdgRkLLBLc6NfVk7s9g0-2" target="mdgRkLLBLc6NfVk7s9g0-3" edge="1">
                    <mxGeometry relative="1" as="geometry"/>
                </mxCell>
                <mxCell id="mdgRkLLBLc6NfVk7s9g0-2" value="Tweet" style="whiteSpace=wrap;html=1;align=center;movable=0;resizable=0;rotatable=0;deletable=0;editable=0;locked=1;connectable=0;" parent="1" vertex="1">
                    <mxGeometry x="1527" y="965" width="100" height="40" as="geometry"/>
                </mxCell>
                <mxCell id="mdgRkLLBLc6NfVk7s9g0-10" style="edgeStyle=none;html=1;entryX=0;entryY=0.5;entryDx=0;entryDy=0;movable=0;resizable=0;rotatable=0;deletable=0;editable=0;locked=1;connectable=0;" parent="1" source="mdgRkLLBLc6NfVk7s9g0-3" target="mdgRkLLBLc6NfVk7s9g0-4" edge="1">
                    <mxGeometry relative="1" as="geometry"/>
                </mxCell>
                <mxCell id="mdgRkLLBLc6NfVk7s9g0-3" value="Instragram" style="whiteSpace=wrap;html=1;align=center;movable=0;resizable=0;rotatable=0;deletable=0;editable=0;locked=1;connectable=0;" parent="1" vertex="1">
                    <mxGeometry x="1667" y="965" width="100" height="40" as="geometry"/>
                </mxCell>
                <mxCell id="mdgRkLLBLc6NfVk7s9g0-11" style="edgeStyle=none;html=1;exitX=1;exitY=0.5;exitDx=0;exitDy=0;entryX=0;entryY=0.5;entryDx=0;entryDy=0;movable=0;resizable=0;rotatable=0;deletable=0;editable=0;locked=1;connectable=0;" parent="1" source="mdgRkLLBLc6NfVk7s9g0-4" target="mdgRkLLBLc6NfVk7s9g0-5" edge="1">
                    <mxGeometry relative="1" as="geometry"/>
                </mxCell>
                <mxCell id="mdgRkLLBLc6NfVk7s9g0-4" value="Linkendin" style="whiteSpace=wrap;html=1;align=center;movable=0;resizable=0;rotatable=0;deletable=0;editable=0;locked=1;connectable=0;" parent="1" vertex="1">
                    <mxGeometry x="1797" y="965" width="100" height="40" as="geometry"/>
                </mxCell>
                <mxCell id="mdgRkLLBLc6NfVk7s9g0-12" style="edgeStyle=none;html=1;entryX=0;entryY=0.5;entryDx=0;entryDy=0;movable=0;resizable=0;rotatable=0;deletable=0;editable=0;locked=1;connectable=0;" parent="1" source="mdgRkLLBLc6NfVk7s9g0-5" target="mdgRkLLBLc6NfVk7s9g0-6" edge="1">
                    <mxGeometry relative="1" as="geometry"/>
                </mxCell>
                <mxCell id="mdgRkLLBLc6NfVk7s9g0-5" value="Github" style="whiteSpace=wrap;html=1;align=center;movable=0;resizable=0;rotatable=0;deletable=0;editable=0;locked=1;connectable=0;" parent="1" vertex="1">
                    <mxGeometry x="1927" y="965" width="100" height="40" as="geometry"/>
                </mxCell>
                <mxCell id="mdgRkLLBLc6NfVk7s9g0-6" value="Email" style="whiteSpace=wrap;html=1;align=center;movable=0;resizable=0;rotatable=0;deletable=0;editable=0;locked=1;connectable=0;" parent="1" vertex="1">
                    <mxGeometry x="2057" y="965" width="100" height="40" as="geometry"/>
                </mxCell>
                <mxCell id="mdgRkLLBLc6NfVk7s9g0-7" value="" style="edgeStyle=entityRelationEdgeStyle;fontSize=12;html=1;endArrow=ERzeroToMany;startArrow=ERzeroToOne;entryX=1;entryY=0.5;entryDx=0;entryDy=0;exitX=1;exitY=0.5;exitDx=0;exitDy=0;movable=0;resizable=0;rotatable=0;deletable=0;editable=0;locked=1;connectable=0;" parent="1" source="-oHwt3OJgQPXoaU6FkW4-1" edge="1">
                    <mxGeometry width="100" height="100" relative="1" as="geometry">
                        <mxPoint x="1300" y="900" as="sourcePoint"/>
                        <mxPoint x="1394" y="985" as="targetPoint"/>
                    </mxGeometry>
                </mxCell>
                <mxCell id="35BAJMezU53KQDEMfEBV-8" style="edgeStyle=none;html=1;entryX=0.5;entryY=0;entryDx=0;entryDy=0;movable=0;resizable=0;rotatable=0;deletable=0;editable=0;locked=1;connectable=0;" parent="1" source="wz8Nt3VvAeiqGTFFv--G-1" target="35BAJMezU53KQDEMfEBV-7" edge="1">
                    <mxGeometry relative="1" as="geometry">
                        <Array as="points">
                            <mxPoint x="1230" y="1160"/>
                        </Array>
                    </mxGeometry>
                </mxCell>
                <mxCell id="wz8Nt3VvAeiqGTFFv--G-1" value="Menu links (Blog, Project, About, Honors/ Awards)" style="whiteSpace=wrap;html=1;dashed=0;movable=0;resizable=0;rotatable=0;deletable=0;editable=0;locked=1;connectable=0;" parent="1" vertex="1">
                    <mxGeometry x="1120" y="1030" width="197.5" height="60" as="geometry"/>
                </mxCell>
                <mxCell id="wz8Nt3VvAeiqGTFFv--G-2" value="" style="edgeStyle=none;html=1;movable=0;resizable=0;rotatable=0;deletable=0;editable=0;locked=1;connectable=0;" parent="1" source="wz8Nt3VvAeiqGTFFv--G-3" target="wz8Nt3VvAeiqGTFFv--G-5" edge="1">
                    <mxGeometry relative="1" as="geometry"/>
                </mxCell>
                <mxCell id="wz8Nt3VvAeiqGTFFv--G-3" value="&lt;span style=&quot;color: rgb(0, 0, 0);&quot;&gt;Blog&lt;/span&gt;" style="whiteSpace=wrap;html=1;dashed=0;movable=0;resizable=0;rotatable=0;deletable=0;editable=0;locked=1;connectable=0;" parent="1" vertex="1">
                    <mxGeometry x="1380" y="1150" width="160" height="45" as="geometry"/>
                </mxCell>
                <mxCell id="wz8Nt3VvAeiqGTFFv--G-4" value="" style="edgeStyle=none;html=1;movable=0;resizable=0;rotatable=0;deletable=0;editable=0;locked=1;connectable=0;" parent="1" source="wz8Nt3VvAeiqGTFFv--G-5" target="wz8Nt3VvAeiqGTFFv--G-7" edge="1">
                    <mxGeometry relative="1" as="geometry"/>
                </mxCell>
                <mxCell id="wz8Nt3VvAeiqGTFFv--G-5" value="&lt;span style=&quot;color: rgb(0, 0, 0);&quot;&gt;Project&lt;/span&gt;" style="whiteSpace=wrap;html=1;dashed=0;movable=0;resizable=0;rotatable=0;deletable=0;editable=0;locked=1;connectable=0;" parent="1" vertex="1">
                    <mxGeometry x="1577" y="1150" width="160" height="45" as="geometry"/>
                </mxCell>
                <mxCell id="wz8Nt3VvAeiqGTFFv--G-6" value="" style="edgeStyle=none;html=1;movable=0;resizable=0;rotatable=0;deletable=0;editable=0;locked=1;connectable=0;" parent="1" source="wz8Nt3VvAeiqGTFFv--G-7" target="wz8Nt3VvAeiqGTFFv--G-8" edge="1">
                    <mxGeometry relative="1" as="geometry"/>
                </mxCell>
                <mxCell id="wz8Nt3VvAeiqGTFFv--G-7" value="&lt;span style=&quot;color: rgb(0, 0, 0);&quot;&gt;About&lt;/span&gt;" style="whiteSpace=wrap;html=1;dashed=0;movable=0;resizable=0;rotatable=0;deletable=0;editable=0;locked=1;connectable=0;" parent="1" vertex="1">
                    <mxGeometry x="1780" y="1150" width="160" height="45" as="geometry"/>
                </mxCell>
                <mxCell id="wz8Nt3VvAeiqGTFFv--G-8" value="&lt;span style=&quot;color: rgb(0, 0, 0);&quot;&gt;Honors/Awards&lt;/span&gt;" style="whiteSpace=wrap;html=1;dashed=0;movable=0;resizable=0;rotatable=0;deletable=0;editable=0;locked=1;connectable=0;" parent="1" vertex="1">
                    <mxGeometry x="1980" y="1150" width="160" height="45" as="geometry"/>
                </mxCell>
                <mxCell id="wz8Nt3VvAeiqGTFFv--G-11" style="edgeStyle=none;html=1;exitX=0.5;exitY=1;exitDx=0;exitDy=0;movable=0;resizable=0;rotatable=0;deletable=0;editable=0;locked=1;connectable=0;" parent="1" source="-oHwt3OJgQPXoaU6FkW4-4" edge="1">
                    <mxGeometry relative="1" as="geometry">
                        <mxPoint x="1227" y="1030" as="targetPoint"/>
                        <Array as="points">
                            <mxPoint x="1200" y="940"/>
                        </Array>
                    </mxGeometry>
                </mxCell>
                <mxCell id="wz8Nt3VvAeiqGTFFv--G-12" value="" style="edgeStyle=entityRelationEdgeStyle;fontSize=12;html=1;endArrow=ERzeroToMany;startArrow=ERzeroToOne;exitX=1;exitY=0.5;exitDx=0;exitDy=0;entryX=0;entryY=0.5;entryDx=0;entryDy=0;movable=0;resizable=0;rotatable=0;deletable=0;editable=0;locked=1;connectable=0;" parent="1" source="wz8Nt3VvAeiqGTFFv--G-1" target="wz8Nt3VvAeiqGTFFv--G-3" edge="1">
                    <mxGeometry width="100" height="100" relative="1" as="geometry">
                        <mxPoint x="1520" y="1090" as="sourcePoint"/>
                        <mxPoint x="1620" y="990" as="targetPoint"/>
                    </mxGeometry>
                </mxCell>
                <mxCell id="35BAJMezU53KQDEMfEBV-1" value="&lt;span style=&quot;scrollbar-color: light-dark(#e2e2e2, #4b4b4b)&lt;br/&gt;&#x9;&#x9;&#x9;&#x9;&#x9;light-dark(#fbfbfb, var(--dark-panel-color));&quot;&gt;&lt;b&gt;Open actual page external&amp;nbsp;&lt;/b&gt;&lt;/span&gt;" style="text;html=1;align=center;verticalAlign=middle;resizable=0;points=[];autosize=1;strokeColor=none;fillColor=none;movable=0;rotatable=0;deletable=0;editable=0;locked=1;connectable=0;" parent="1" vertex="1">
                    <mxGeometry x="1675" y="1090" width="180" height="30" as="geometry"/>
                </mxCell>
                <mxCell id="35BAJMezU53KQDEMfEBV-2" value="&lt;span style=&quot;scrollbar-color: light-dark(#e2e2e2, #4b4b4b)&lt;br/&gt;&#x9;&#x9;&#x9;&#x9;&#x9;light-dark(#fbfbfb, var(--dark-panel-color));&quot;&gt;&lt;b&gt;Redirect to Social links&amp;nbsp;&amp;nbsp;&lt;/b&gt;&lt;/span&gt;" style="text;html=1;align=center;verticalAlign=middle;resizable=0;points=[];autosize=1;strokeColor=none;fillColor=none;movable=0;rotatable=0;deletable=0;editable=0;locked=1;connectable=0;" parent="1" vertex="1">
                    <mxGeometry x="1685" y="910" width="160" height="30" as="geometry"/>
                </mxCell>
                <mxCell id="35BAJMezU53KQDEMfEBV-10" style="edgeStyle=none;html=1;exitX=0.5;exitY=1;exitDx=0;exitDy=0;movable=0;resizable=0;rotatable=0;deletable=0;editable=0;locked=1;connectable=0;" parent="1" source="35BAJMezU53KQDEMfEBV-7" target="35BAJMezU53KQDEMfEBV-9" edge="1">
                    <mxGeometry relative="1" as="geometry"/>
                </mxCell>
                <mxCell id="35BAJMezU53KQDEMfEBV-7" value="Deploy your site" style="html=1;dashed=0;whiteSpace=wrap;movable=0;resizable=0;rotatable=0;deletable=0;editable=0;locked=1;connectable=0;" parent="1" vertex="1">
                    <mxGeometry x="1130" y="1250" width="172.5" height="60" as="geometry"/>
                </mxCell>
                <mxCell id="35BAJMezU53KQDEMfEBV-9" value="Netlify" style="whiteSpace=wrap;html=1;align=center;movable=0;resizable=0;rotatable=0;deletable=0;editable=0;locked=1;connectable=0;" parent="1" vertex="1">
                    <mxGeometry x="1166.25" y="1370" width="100" height="40" as="geometry"/>
                </mxCell>
                <mxCell id="35BAJMezU53KQDEMfEBV-15" style="edgeStyle=none;html=1;exitX=0.5;exitY=1;exitDx=0;exitDy=0;entryX=0;entryY=0.5;entryDx=0;entryDy=0;movable=0;resizable=0;rotatable=0;deletable=0;editable=0;locked=1;connectable=0;" parent="1" source="35BAJMezU53KQDEMfEBV-14" target="35BAJMezU53KQDEMfEBV-7" edge="1">
                    <mxGeometry relative="1" as="geometry">
                        <Array as="points">
                            <mxPoint x="700" y="1280"/>
                        </Array>
                    </mxGeometry>
                </mxCell>
                <mxCell id="35BAJMezU53KQDEMfEBV-14" value="Publish your site" style="html=1;dashed=0;whiteSpace=wrap;movable=0;resizable=0;rotatable=0;deletable=0;editable=0;locked=1;connectable=0;" parent="1" vertex="1">
                    <mxGeometry x="630" y="782" width="140" height="58" as="geometry"/>
                </mxCell>
            </root>
        </mxGraphModel>
    </diagram>
</mxfile>